<mxfile host="app.diagrams.net" agent="Mozilla/5.0 (Windows NT 10.0; Win64; x64) AppleWebKit/537.36 (KHTML, like Gecko) Chrome/141.0.0.0 Safari/537.36" version="28.2.7">
  <diagram name="Page-1" id="aukE4yNIVwOf9_0B7d-4">
    <mxGraphModel grid="1" page="1" gridSize="10" guides="1" tooltips="1" connect="1" arrows="1" fold="1" pageScale="1" pageWidth="827" pageHeight="1169" math="0" shadow="0">
      <root>
        <mxCell id="0" />
        <mxCell id="1" parent="0" />
        <mxCell id="S0VA6kQLoiJIgg5Q_2Ph-1" value="&lt;font style=&quot;font-size: 30px;&quot;&gt;EV Driver&lt;/font&gt;" style="shape=umlActor;verticalLabelPosition=bottom;verticalAlign=top;html=1;outlineConnect=0;" vertex="1" parent="1">
          <mxGeometry x="-170" y="160" width="160" height="180" as="geometry" />
        </mxCell>
        <mxCell id="S0VA6kQLoiJIgg5Q_2Ph-6" value="" style="rounded=0;whiteSpace=wrap;html=1;align=left;" vertex="1" parent="1">
          <mxGeometry x="520" y="-300" width="670" height="2410" as="geometry" />
        </mxCell>
        <mxCell id="S0VA6kQLoiJIgg5Q_2Ph-7" value="Đăng kí/ Đăng nhập" style="ellipse;whiteSpace=wrap;html=1;" vertex="1" parent="1">
          <mxGeometry x="560" y="-240" width="240" height="80" as="geometry" />
        </mxCell>
        <mxCell id="S0VA6kQLoiJIgg5Q_2Ph-8" value="&lt;font style=&quot;font-size: 15px;&quot;&gt;Phần mềm quản lý chạm sạc xe điện&lt;/font&gt;" style="text;html=1;whiteSpace=wrap;strokeColor=none;fillColor=none;align=center;verticalAlign=middle;rounded=0;" vertex="1" parent="1">
          <mxGeometry x="547.5" y="-290" width="265" height="30" as="geometry" />
        </mxCell>
        <mxCell id="S0VA6kQLoiJIgg5Q_2Ph-9" value="Quản lý hồ sơ xe" style="ellipse;whiteSpace=wrap;html=1;" vertex="1" parent="1">
          <mxGeometry x="560" y="-120" width="240" height="80" as="geometry" />
        </mxCell>
        <mxCell id="S0VA6kQLoiJIgg5Q_2Ph-10" value="Đặt chỗ điểm sạc" style="ellipse;whiteSpace=wrap;html=1;" vertex="1" parent="1">
          <mxGeometry x="560" y="-10" width="240" height="80" as="geometry" />
        </mxCell>
        <mxCell id="S0VA6kQLoiJIgg5Q_2Ph-11" value="Thông báo" style="ellipse;whiteSpace=wrap;html=1;" vertex="1" parent="1">
          <mxGeometry x="560" y="110" width="240" height="80" as="geometry" />
        </mxCell>
        <mxCell id="S0VA6kQLoiJIgg5Q_2Ph-12" value="Lịch sử và thống kê cá nhân" style="ellipse;whiteSpace=wrap;html=1;" vertex="1" parent="1">
          <mxGeometry x="560" y="230" width="240" height="80" as="geometry" />
        </mxCell>
        <mxCell id="S0VA6kQLoiJIgg5Q_2Ph-13" value="Thanh toán &amp;amp; ví điện tử" style="ellipse;whiteSpace=wrap;html=1;" vertex="1" parent="1">
          <mxGeometry x="560" y="350" width="240" height="80" as="geometry" />
        </mxCell>
        <mxCell id="S0VA6kQLoiJIgg5Q_2Ph-14" value="Hóa đơn điện tử" style="ellipse;whiteSpace=wrap;html=1;" vertex="1" parent="1">
          <mxGeometry x="560" y="470" width="240" height="80" as="geometry" />
        </mxCell>
        <mxCell id="S0VA6kQLoiJIgg5Q_2Ph-15" value="Giám sát trạng thái sạc" style="ellipse;whiteSpace=wrap;html=1;" vertex="1" parent="1">
          <mxGeometry x="560" y="590" width="240" height="80" as="geometry" />
        </mxCell>
        <mxCell id="S0VA6kQLoiJIgg5Q_2Ph-16" value="Tìm &amp;amp; xem trạm sạc" style="ellipse;whiteSpace=wrap;html=1;" vertex="1" parent="1">
          <mxGeometry x="560" y="710" width="240" height="80" as="geometry" />
        </mxCell>
        <mxCell id="S0VA6kQLoiJIgg5Q_2Ph-17" value="QR để bắt đầu/ dừng phiên sạc" style="ellipse;whiteSpace=wrap;html=1;" vertex="1" parent="1">
          <mxGeometry x="560" y="830" width="240" height="80" as="geometry" />
        </mxCell>
        <mxCell id="S0VA6kQLoiJIgg5Q_2Ph-18" value="Kiểm soát và hỗ trợ phiên sạc" style="ellipse;whiteSpace=wrap;html=1;" vertex="1" parent="1">
          <mxGeometry x="560" y="940" width="240" height="80" as="geometry" />
        </mxCell>
        <mxCell id="S0VA6kQLoiJIgg5Q_2Ph-78" style="edgeStyle=orthogonalEdgeStyle;rounded=0;orthogonalLoop=1;jettySize=auto;html=1;entryX=0;entryY=1;entryDx=0;entryDy=0;exitX=0.75;exitY=0.1;exitDx=0;exitDy=0;exitPerimeter=0;curved=1;" edge="1" parent="1" source="S0VA6kQLoiJIgg5Q_2Ph-75" target="S0VA6kQLoiJIgg5Q_2Ph-17">
          <mxGeometry relative="1" as="geometry">
            <Array as="points">
              <mxPoint x="38" y="970" />
              <mxPoint x="595" y="970" />
            </Array>
          </mxGeometry>
        </mxCell>
        <mxCell id="S0VA6kQLoiJIgg5Q_2Ph-19" value="Báo cáo sự cố" style="ellipse;whiteSpace=wrap;html=1;" vertex="1" parent="1">
          <mxGeometry x="560" y="1050" width="240" height="80" as="geometry" />
        </mxCell>
        <mxCell id="S0VA6kQLoiJIgg5Q_2Ph-20" value="Thanh toán tại trạm" style="ellipse;whiteSpace=wrap;html=1;" vertex="1" parent="1">
          <mxGeometry x="560" y="1169" width="240" height="80" as="geometry" />
        </mxCell>
        <mxCell id="S0VA6kQLoiJIgg5Q_2Ph-21" value="Theo dõi tình trạng điểm sạc" style="ellipse;whiteSpace=wrap;html=1;" vertex="1" parent="1">
          <mxGeometry x="560" y="1290" width="240" height="80" as="geometry" />
        </mxCell>
        <mxCell id="S0VA6kQLoiJIgg5Q_2Ph-22" value="Điều khiển từ xa" style="ellipse;whiteSpace=wrap;html=1;" vertex="1" parent="1">
          <mxGeometry x="560" y="1410" width="240" height="80" as="geometry" />
        </mxCell>
        <mxCell id="S0VA6kQLoiJIgg5Q_2Ph-23" value="Báo cáo &amp;amp; thống kê" style="ellipse;whiteSpace=wrap;html=1;" vertex="1" parent="1">
          <mxGeometry x="560" y="1530" width="240" height="80" as="geometry" />
        </mxCell>
        <mxCell id="S0VA6kQLoiJIgg5Q_2Ph-24" value="Quản lý người dùng và phân quyền" style="ellipse;whiteSpace=wrap;html=1;" vertex="1" parent="1">
          <mxGeometry x="560" y="1660" width="240" height="80" as="geometry" />
        </mxCell>
        <mxCell id="S0VA6kQLoiJIgg5Q_2Ph-25" value="Tạo và quản lý gói dịch vụ" style="ellipse;whiteSpace=wrap;html=1;" vertex="1" parent="1">
          <mxGeometry x="560" y="1780" width="240" height="80" as="geometry" />
        </mxCell>
        <mxCell id="S0VA6kQLoiJIgg5Q_2Ph-26" value="Quản lý trạm và điểm sạc" style="ellipse;whiteSpace=wrap;html=1;" vertex="1" parent="1">
          <mxGeometry x="560" y="1890" width="240" height="80" as="geometry" />
        </mxCell>
        <mxCell id="S0VA6kQLoiJIgg5Q_2Ph-27" value="AI dự báo nhu cầu" style="ellipse;whiteSpace=wrap;html=1;" vertex="1" parent="1">
          <mxGeometry x="560" y="2000" width="240" height="80" as="geometry" />
        </mxCell>
        <mxCell id="S0VA6kQLoiJIgg5Q_2Ph-29" value="" style="endArrow=classic;html=1;rounded=0;exitX=0.5;exitY=0;exitDx=0;exitDy=0;exitPerimeter=0;entryX=0;entryY=0.5;entryDx=0;entryDy=0;edgeStyle=orthogonalEdgeStyle;curved=1;" edge="1" parent="1" source="S0VA6kQLoiJIgg5Q_2Ph-1" target="S0VA6kQLoiJIgg5Q_2Ph-7">
          <mxGeometry width="50" height="50" relative="1" as="geometry">
            <mxPoint x="280" y="-100" as="sourcePoint" />
            <mxPoint x="330" y="-150" as="targetPoint" />
          </mxGeometry>
        </mxCell>
        <mxCell id="S0VA6kQLoiJIgg5Q_2Ph-30" value="" style="endArrow=classic;html=1;rounded=0;exitX=0.5;exitY=0;exitDx=0;exitDy=0;exitPerimeter=0;entryX=0;entryY=0.5;entryDx=0;entryDy=0;edgeStyle=orthogonalEdgeStyle;curved=1;" edge="1" parent="1" source="S0VA6kQLoiJIgg5Q_2Ph-1" target="S0VA6kQLoiJIgg5Q_2Ph-9">
          <mxGeometry width="50" height="50" relative="1" as="geometry">
            <mxPoint x="280" y="60" as="sourcePoint" />
            <mxPoint x="330" y="10" as="targetPoint" />
          </mxGeometry>
        </mxCell>
        <mxCell id="S0VA6kQLoiJIgg5Q_2Ph-31" value="" style="endArrow=classic;html=1;rounded=0;exitX=0.75;exitY=0.1;exitDx=0;exitDy=0;exitPerimeter=0;entryX=0;entryY=0.5;entryDx=0;entryDy=0;edgeStyle=orthogonalEdgeStyle;curved=1;" edge="1" parent="1" source="S0VA6kQLoiJIgg5Q_2Ph-1" target="S0VA6kQLoiJIgg5Q_2Ph-10">
          <mxGeometry width="50" height="50" relative="1" as="geometry">
            <mxPoint x="280" y="60" as="sourcePoint" />
            <mxPoint x="330" y="10" as="targetPoint" />
            <Array as="points">
              <mxPoint x="10" y="130" />
              <mxPoint x="260" y="130" />
              <mxPoint x="260" y="50" />
              <mxPoint x="560" y="50" />
            </Array>
          </mxGeometry>
        </mxCell>
        <mxCell id="S0VA6kQLoiJIgg5Q_2Ph-32" value="" style="endArrow=classic;html=1;rounded=0;exitX=1;exitY=0.3333333333333333;exitDx=0;exitDy=0;exitPerimeter=0;entryX=0;entryY=0.5;entryDx=0;entryDy=0;edgeStyle=orthogonalEdgeStyle;curved=1;" edge="1" parent="1" source="S0VA6kQLoiJIgg5Q_2Ph-1" target="S0VA6kQLoiJIgg5Q_2Ph-11">
          <mxGeometry width="50" height="50" relative="1" as="geometry">
            <mxPoint x="280" y="60" as="sourcePoint" />
            <mxPoint x="330" y="10" as="targetPoint" />
          </mxGeometry>
        </mxCell>
        <mxCell id="S0VA6kQLoiJIgg5Q_2Ph-33" value="" style="endArrow=classic;html=1;rounded=0;exitX=0.5;exitY=0.5;exitDx=0;exitDy=0;exitPerimeter=0;entryX=0;entryY=0.5;entryDx=0;entryDy=0;edgeStyle=orthogonalEdgeStyle;curved=1;" edge="1" parent="1" source="S0VA6kQLoiJIgg5Q_2Ph-1" target="S0VA6kQLoiJIgg5Q_2Ph-12">
          <mxGeometry width="50" height="50" relative="1" as="geometry">
            <mxPoint x="280" y="400" as="sourcePoint" />
            <mxPoint x="330" y="350" as="targetPoint" />
          </mxGeometry>
        </mxCell>
        <mxCell id="S0VA6kQLoiJIgg5Q_2Ph-34" value="" style="endArrow=classic;html=1;rounded=0;exitX=0.5;exitY=0.5;exitDx=0;exitDy=0;exitPerimeter=0;entryX=0;entryY=0.5;entryDx=0;entryDy=0;edgeStyle=orthogonalEdgeStyle;curved=1;" edge="1" parent="1" source="S0VA6kQLoiJIgg5Q_2Ph-1" target="S0VA6kQLoiJIgg5Q_2Ph-13">
          <mxGeometry width="50" height="50" relative="1" as="geometry">
            <mxPoint x="280" y="400" as="sourcePoint" />
            <mxPoint x="330" y="350" as="targetPoint" />
          </mxGeometry>
        </mxCell>
        <mxCell id="S0VA6kQLoiJIgg5Q_2Ph-35" value="" style="endArrow=classic;html=1;rounded=0;exitX=1;exitY=1;exitDx=0;exitDy=0;exitPerimeter=0;entryX=0;entryY=0.5;entryDx=0;entryDy=0;edgeStyle=orthogonalEdgeStyle;curved=1;" edge="1" parent="1" source="S0VA6kQLoiJIgg5Q_2Ph-1" target="S0VA6kQLoiJIgg5Q_2Ph-14">
          <mxGeometry width="50" height="50" relative="1" as="geometry">
            <mxPoint x="280" y="400" as="sourcePoint" />
            <mxPoint x="330" y="350" as="targetPoint" />
          </mxGeometry>
        </mxCell>
        <mxCell id="S0VA6kQLoiJIgg5Q_2Ph-36" value="" style="endArrow=classic;html=1;rounded=0;exitX=0;exitY=1;exitDx=0;exitDy=0;exitPerimeter=0;entryX=0;entryY=0.5;entryDx=0;entryDy=0;edgeStyle=orthogonalEdgeStyle;curved=1;" edge="1" parent="1" source="S0VA6kQLoiJIgg5Q_2Ph-1" target="S0VA6kQLoiJIgg5Q_2Ph-15">
          <mxGeometry width="50" height="50" relative="1" as="geometry">
            <mxPoint x="280" y="400" as="sourcePoint" />
            <mxPoint x="350" y="380" as="targetPoint" />
          </mxGeometry>
        </mxCell>
        <mxCell id="S0VA6kQLoiJIgg5Q_2Ph-37" value="" style="endArrow=classic;html=1;rounded=0;exitX=0;exitY=1;exitDx=0;exitDy=0;exitPerimeter=0;entryX=0;entryY=0.5;entryDx=0;entryDy=0;edgeStyle=orthogonalEdgeStyle;curved=1;" edge="1" parent="1" source="S0VA6kQLoiJIgg5Q_2Ph-1" target="S0VA6kQLoiJIgg5Q_2Ph-16">
          <mxGeometry width="50" height="50" relative="1" as="geometry">
            <mxPoint x="280" y="560" as="sourcePoint" />
            <mxPoint x="330" y="510" as="targetPoint" />
          </mxGeometry>
        </mxCell>
        <mxCell id="S0VA6kQLoiJIgg5Q_2Ph-38" value="" style="endArrow=classic;html=1;rounded=0;exitX=0;exitY=1;exitDx=0;exitDy=0;exitPerimeter=0;entryX=0;entryY=0.5;entryDx=0;entryDy=0;edgeStyle=orthogonalEdgeStyle;curved=1;" edge="1" parent="1" source="S0VA6kQLoiJIgg5Q_2Ph-1" target="S0VA6kQLoiJIgg5Q_2Ph-17">
          <mxGeometry width="50" height="50" relative="1" as="geometry">
            <mxPoint x="280" y="560" as="sourcePoint" />
            <mxPoint x="330" y="510" as="targetPoint" />
          </mxGeometry>
        </mxCell>
        <mxCell id="S0VA6kQLoiJIgg5Q_2Ph-40" value="&lt;font style=&quot;font-size: 30px;&quot;&gt;EV Staff&lt;/font&gt;" style="shape=umlActor;verticalLabelPosition=bottom;verticalAlign=top;html=1;outlineConnect=0;" vertex="1" parent="1">
          <mxGeometry x="1530" y="1080" width="130" height="180" as="geometry" />
        </mxCell>
        <mxCell id="S0VA6kQLoiJIgg5Q_2Ph-41" value="" style="endArrow=classic;html=1;rounded=0;entryX=1;entryY=0.5;entryDx=0;entryDy=0;exitX=0.25;exitY=0.1;exitDx=0;exitDy=0;exitPerimeter=0;edgeStyle=orthogonalEdgeStyle;curved=1;" edge="1" parent="1" source="S0VA6kQLoiJIgg5Q_2Ph-40" target="S0VA6kQLoiJIgg5Q_2Ph-18">
          <mxGeometry width="50" height="50" relative="1" as="geometry">
            <mxPoint x="1220" y="1260" as="sourcePoint" />
            <mxPoint x="960" y="1160" as="targetPoint" />
          </mxGeometry>
        </mxCell>
        <mxCell id="S0VA6kQLoiJIgg5Q_2Ph-42" value="" style="endArrow=classic;html=1;rounded=0;entryX=1;entryY=0.5;entryDx=0;entryDy=0;exitX=0;exitY=0.3333333333333333;exitDx=0;exitDy=0;exitPerimeter=0;" edge="1" parent="1" source="S0VA6kQLoiJIgg5Q_2Ph-40" target="S0VA6kQLoiJIgg5Q_2Ph-19">
          <mxGeometry width="50" height="50" relative="1" as="geometry">
            <mxPoint x="860" y="1220" as="sourcePoint" />
            <mxPoint x="910" y="1170" as="targetPoint" />
          </mxGeometry>
        </mxCell>
        <mxCell id="S0VA6kQLoiJIgg5Q_2Ph-43" value="" style="endArrow=classic;html=1;rounded=0;entryX=1;entryY=0.5;entryDx=0;entryDy=0;exitX=0.5;exitY=0.5;exitDx=0;exitDy=0;exitPerimeter=0;" edge="1" parent="1" source="S0VA6kQLoiJIgg5Q_2Ph-40" target="S0VA6kQLoiJIgg5Q_2Ph-20">
          <mxGeometry width="50" height="50" relative="1" as="geometry">
            <mxPoint x="1380" y="1390" as="sourcePoint" />
            <mxPoint x="1430" y="1340" as="targetPoint" />
          </mxGeometry>
        </mxCell>
        <mxCell id="S0VA6kQLoiJIgg5Q_2Ph-44" value="" style="endArrow=classic;html=1;rounded=0;entryX=1;entryY=0.5;entryDx=0;entryDy=0;exitX=0;exitY=1;exitDx=0;exitDy=0;exitPerimeter=0;edgeStyle=orthogonalEdgeStyle;curved=1;" edge="1" parent="1" source="S0VA6kQLoiJIgg5Q_2Ph-40" target="S0VA6kQLoiJIgg5Q_2Ph-21">
          <mxGeometry width="50" height="50" relative="1" as="geometry">
            <mxPoint x="1380" y="1390" as="sourcePoint" />
            <mxPoint x="1430" y="1340" as="targetPoint" />
          </mxGeometry>
        </mxCell>
        <mxCell id="S0VA6kQLoiJIgg5Q_2Ph-46" value="&lt;font style=&quot;font-size: 30px;&quot;&gt;EV Admin&lt;/font&gt;" style="shape=umlActor;verticalLabelPosition=bottom;verticalAlign=top;html=1;outlineConnect=0;" vertex="1" parent="1">
          <mxGeometry x="-310" y="1530" width="130" height="180" as="geometry" />
        </mxCell>
        <mxCell id="S0VA6kQLoiJIgg5Q_2Ph-47" value="" style="endArrow=classic;html=1;rounded=0;entryX=0;entryY=0.5;entryDx=0;entryDy=0;exitX=0.5;exitY=0;exitDx=0;exitDy=0;exitPerimeter=0;edgeStyle=orthogonalEdgeStyle;curved=1;" edge="1" parent="1" source="S0VA6kQLoiJIgg5Q_2Ph-46" target="S0VA6kQLoiJIgg5Q_2Ph-22">
          <mxGeometry width="50" height="50" relative="1" as="geometry">
            <mxPoint x="-620" y="1450" as="sourcePoint" />
            <mxPoint x="-570" y="1400" as="targetPoint" />
          </mxGeometry>
        </mxCell>
        <mxCell id="S0VA6kQLoiJIgg5Q_2Ph-48" value="" style="endArrow=classic;html=1;rounded=0;entryX=0;entryY=0.5;entryDx=0;entryDy=0;exitX=1;exitY=0.3333333333333333;exitDx=0;exitDy=0;exitPerimeter=0;edgeStyle=orthogonalEdgeStyle;curved=1;" edge="1" parent="1" source="S0VA6kQLoiJIgg5Q_2Ph-46" target="S0VA6kQLoiJIgg5Q_2Ph-23">
          <mxGeometry width="50" height="50" relative="1" as="geometry">
            <mxPoint x="-620" y="1450" as="sourcePoint" />
            <mxPoint x="-570" y="1400" as="targetPoint" />
          </mxGeometry>
        </mxCell>
        <mxCell id="S0VA6kQLoiJIgg5Q_2Ph-49" value="" style="endArrow=classic;html=1;rounded=0;entryX=0;entryY=0.5;entryDx=0;entryDy=0;exitX=0.5;exitY=0.5;exitDx=0;exitDy=0;exitPerimeter=0;" edge="1" parent="1" source="S0VA6kQLoiJIgg5Q_2Ph-46" target="S0VA6kQLoiJIgg5Q_2Ph-24">
          <mxGeometry width="50" height="50" relative="1" as="geometry">
            <mxPoint x="-620" y="1450" as="sourcePoint" />
            <mxPoint x="-570" y="1400" as="targetPoint" />
          </mxGeometry>
        </mxCell>
        <mxCell id="S0VA6kQLoiJIgg5Q_2Ph-50" value="" style="endArrow=classic;html=1;rounded=0;entryX=0;entryY=0.5;entryDx=0;entryDy=0;exitX=1;exitY=1;exitDx=0;exitDy=0;exitPerimeter=0;" edge="1" parent="1" source="S0VA6kQLoiJIgg5Q_2Ph-46" target="S0VA6kQLoiJIgg5Q_2Ph-25">
          <mxGeometry width="50" height="50" relative="1" as="geometry">
            <mxPoint x="-460" y="1340" as="sourcePoint" />
            <mxPoint x="-570" y="1400" as="targetPoint" />
          </mxGeometry>
        </mxCell>
        <mxCell id="S0VA6kQLoiJIgg5Q_2Ph-51" value="" style="endArrow=classic;html=1;rounded=0;entryX=0;entryY=0.5;entryDx=0;entryDy=0;edgeStyle=orthogonalEdgeStyle;curved=1;exitX=1;exitY=1;exitDx=0;exitDy=0;exitPerimeter=0;" edge="1" parent="1" source="S0VA6kQLoiJIgg5Q_2Ph-46" target="S0VA6kQLoiJIgg5Q_2Ph-26">
          <mxGeometry width="50" height="50" relative="1" as="geometry">
            <mxPoint x="-510" y="1740" as="sourcePoint" />
            <mxPoint x="-570" y="1400" as="targetPoint" />
          </mxGeometry>
        </mxCell>
        <mxCell id="S0VA6kQLoiJIgg5Q_2Ph-52" value="" style="endArrow=classic;html=1;rounded=0;entryX=0;entryY=0.5;entryDx=0;entryDy=0;exitX=0;exitY=1;exitDx=0;exitDy=0;exitPerimeter=0;edgeStyle=orthogonalEdgeStyle;curved=1;" edge="1" parent="1" source="S0VA6kQLoiJIgg5Q_2Ph-46" target="S0VA6kQLoiJIgg5Q_2Ph-27">
          <mxGeometry width="50" height="50" relative="1" as="geometry">
            <mxPoint x="-620" y="1450" as="sourcePoint" />
            <mxPoint x="-570" y="1400" as="targetPoint" />
          </mxGeometry>
        </mxCell>
        <mxCell id="S0VA6kQLoiJIgg5Q_2Ph-57" value="" style="group" vertex="1" connectable="0" parent="1">
          <mxGeometry x="960" y="390" width="200" height="120" as="geometry" />
        </mxCell>
        <mxCell id="S0VA6kQLoiJIgg5Q_2Ph-54" value="" style="endArrow=classic;html=1;rounded=0;entryX=1;entryY=0.5;entryDx=0;entryDy=0;exitX=1;exitY=0.5;exitDx=0;exitDy=0;edgeStyle=orthogonalEdgeStyle;curved=1;dashed=1;dashPattern=8 8;" edge="1" parent="S0VA6kQLoiJIgg5Q_2Ph-57" source="S0VA6kQLoiJIgg5Q_2Ph-13" target="S0VA6kQLoiJIgg5Q_2Ph-14">
          <mxGeometry width="50" height="50" relative="1" as="geometry">
            <mxPoint x="-100" y="20" as="sourcePoint" />
            <mxPoint x="66.66666666666666" y="-30" as="targetPoint" />
            <Array as="points">
              <mxPoint x="100" />
              <mxPoint x="100" y="120" />
            </Array>
          </mxGeometry>
        </mxCell>
        <mxCell id="S0VA6kQLoiJIgg5Q_2Ph-55" value="&lt;font style=&quot;font-size: 15px;&quot;&gt;&amp;lt;&amp;lt;include&amp;gt;&amp;gt;&lt;/font&gt;" style="text;html=1;whiteSpace=wrap;strokeColor=none;fillColor=none;align=center;verticalAlign=middle;rounded=0;" vertex="1" parent="S0VA6kQLoiJIgg5Q_2Ph-57">
          <mxGeometry y="40" width="200" height="30" as="geometry" />
        </mxCell>
        <mxCell id="S0VA6kQLoiJIgg5Q_2Ph-61" value="" style="group" vertex="1" connectable="0" parent="1">
          <mxGeometry x="765" y="300" width="476" height="570" as="geometry" />
        </mxCell>
        <mxCell id="S0VA6kQLoiJIgg5Q_2Ph-59" value="" style="endArrow=classic;html=1;rounded=0;exitX=1;exitY=0.5;exitDx=0;exitDy=0;entryX=1;entryY=0;entryDx=0;entryDy=0;dashed=1;dashPattern=8 8;edgeStyle=orthogonalEdgeStyle;curved=1;" edge="1" parent="S0VA6kQLoiJIgg5Q_2Ph-61" source="S0VA6kQLoiJIgg5Q_2Ph-17" target="S0VA6kQLoiJIgg5Q_2Ph-13">
          <mxGeometry width="50" height="50" relative="1" as="geometry">
            <mxPoint x="155" y="470" as="sourcePoint" />
            <mxPoint x="205" y="420" as="targetPoint" />
            <Array as="points">
              <mxPoint x="395" y="570" />
              <mxPoint x="395" />
              <mxPoint />
            </Array>
          </mxGeometry>
        </mxCell>
        <mxCell id="S0VA6kQLoiJIgg5Q_2Ph-60" value="&lt;font style=&quot;font-size: 15px;&quot;&gt;&amp;lt;&amp;lt;include&amp;gt;&amp;gt;&lt;/font&gt;" style="text;html=1;whiteSpace=wrap;strokeColor=none;fillColor=none;align=center;verticalAlign=middle;rounded=0;" vertex="1" parent="S0VA6kQLoiJIgg5Q_2Ph-61">
          <mxGeometry x="276" y="390" width="200" height="30" as="geometry" />
        </mxCell>
        <mxCell id="S0VA6kQLoiJIgg5Q_2Ph-64" value="" style="group" vertex="1" connectable="0" parent="1">
          <mxGeometry x="1010" y="30" width="200" height="720" as="geometry" />
        </mxCell>
        <mxCell id="S0VA6kQLoiJIgg5Q_2Ph-62" value="" style="endArrow=classic;html=1;rounded=0;exitX=1;exitY=0.5;exitDx=0;exitDy=0;entryX=1;entryY=0.5;entryDx=0;entryDy=0;dashed=1;dashPattern=8 8;edgeStyle=orthogonalEdgeStyle;curved=1;" edge="1" parent="S0VA6kQLoiJIgg5Q_2Ph-64" source="S0VA6kQLoiJIgg5Q_2Ph-16" target="S0VA6kQLoiJIgg5Q_2Ph-10">
          <mxGeometry width="50" height="50" relative="1" as="geometry">
            <mxPoint x="-360" y="480" as="sourcePoint" />
            <mxPoint x="-310" y="430" as="targetPoint" />
            <Array as="points">
              <mxPoint x="130" y="720" />
              <mxPoint x="130" />
            </Array>
          </mxGeometry>
        </mxCell>
        <mxCell id="S0VA6kQLoiJIgg5Q_2Ph-63" value="&lt;font style=&quot;font-size: 15px;&quot;&gt;&amp;lt;&amp;lt;include&amp;gt;&amp;gt;&lt;/font&gt;" style="text;html=1;whiteSpace=wrap;strokeColor=none;fillColor=none;align=center;verticalAlign=middle;rounded=0;" vertex="1" parent="S0VA6kQLoiJIgg5Q_2Ph-64">
          <mxGeometry y="160" width="200" height="30" as="geometry" />
        </mxCell>
        <mxCell id="S0VA6kQLoiJIgg5Q_2Ph-67" value="" style="group" vertex="1" connectable="0" parent="1">
          <mxGeometry x="1000" y="1330" width="200" height="600" as="geometry" />
        </mxCell>
        <mxCell id="S0VA6kQLoiJIgg5Q_2Ph-65" value="" style="endArrow=classic;html=1;rounded=0;exitX=1;exitY=0.5;exitDx=0;exitDy=0;entryX=1;entryY=0.5;entryDx=0;entryDy=0;dashed=1;dashPattern=8 8;edgeStyle=orthogonalEdgeStyle;curved=1;" edge="1" parent="S0VA6kQLoiJIgg5Q_2Ph-67" source="S0VA6kQLoiJIgg5Q_2Ph-26" target="S0VA6kQLoiJIgg5Q_2Ph-21">
          <mxGeometry width="50" height="50" relative="1" as="geometry">
            <mxPoint x="-80" y="410" as="sourcePoint" />
            <mxPoint x="-30" y="360" as="targetPoint" />
            <Array as="points">
              <mxPoint x="110" y="600" />
              <mxPoint x="110" />
            </Array>
          </mxGeometry>
        </mxCell>
        <mxCell id="S0VA6kQLoiJIgg5Q_2Ph-66" value="&lt;font style=&quot;font-size: 15px;&quot;&gt;&amp;lt;&amp;lt;include&amp;gt;&amp;gt;&lt;/font&gt;" style="text;html=1;whiteSpace=wrap;strokeColor=none;fillColor=none;align=center;verticalAlign=middle;rounded=0;" vertex="1" parent="S0VA6kQLoiJIgg5Q_2Ph-67">
          <mxGeometry y="160" width="200" height="30" as="geometry" />
        </mxCell>
        <mxCell id="S0VA6kQLoiJIgg5Q_2Ph-70" value="" style="group" vertex="1" connectable="0" parent="1">
          <mxGeometry x="840" y="1450" width="200" height="452" as="geometry" />
        </mxCell>
        <mxCell id="S0VA6kQLoiJIgg5Q_2Ph-68" value="" style="endArrow=classic;html=1;rounded=0;exitX=1;exitY=0;exitDx=0;exitDy=0;entryX=1;entryY=0.5;entryDx=0;entryDy=0;dashed=1;dashPattern=8 8;edgeStyle=orthogonalEdgeStyle;curved=1;" edge="1" parent="S0VA6kQLoiJIgg5Q_2Ph-70" source="S0VA6kQLoiJIgg5Q_2Ph-26" target="S0VA6kQLoiJIgg5Q_2Ph-22">
          <mxGeometry width="50" height="50" relative="1" as="geometry">
            <mxPoint x="80" y="290" as="sourcePoint" />
            <mxPoint x="130" y="240" as="targetPoint" />
            <Array as="points">
              <mxPoint x="100" y="452" />
              <mxPoint x="100" y="180" />
              <mxPoint x="90" y="180" />
              <mxPoint x="90" />
            </Array>
          </mxGeometry>
        </mxCell>
        <mxCell id="S0VA6kQLoiJIgg5Q_2Ph-69" value="&lt;font style=&quot;font-size: 15px;&quot;&gt;&amp;lt;&amp;lt;include&amp;gt;&amp;gt;&lt;/font&gt;" style="text;html=1;whiteSpace=wrap;strokeColor=none;fillColor=none;align=center;verticalAlign=middle;rounded=0;" vertex="1" parent="S0VA6kQLoiJIgg5Q_2Ph-70">
          <mxGeometry y="220" width="200" height="30" as="geometry" />
        </mxCell>
        <mxCell id="S0VA6kQLoiJIgg5Q_2Ph-73" value="" style="group" vertex="1" connectable="0" parent="1">
          <mxGeometry x="903" y="1570" width="207" height="470" as="geometry" />
        </mxCell>
        <mxCell id="S0VA6kQLoiJIgg5Q_2Ph-71" value="" style="endArrow=classic;html=1;rounded=0;exitX=1;exitY=0.5;exitDx=0;exitDy=0;entryX=1;entryY=0.5;entryDx=0;entryDy=0;dashed=1;dashPattern=8 8;edgeStyle=orthogonalEdgeStyle;curved=1;" edge="1" parent="S0VA6kQLoiJIgg5Q_2Ph-73" source="S0VA6kQLoiJIgg5Q_2Ph-27" target="S0VA6kQLoiJIgg5Q_2Ph-23">
          <mxGeometry width="50" height="50" relative="1" as="geometry">
            <mxPoint x="17" as="sourcePoint" />
            <mxPoint x="67" y="-50" as="targetPoint" />
            <Array as="points">
              <mxPoint x="207" y="470" />
              <mxPoint x="207" />
            </Array>
          </mxGeometry>
        </mxCell>
        <mxCell id="S0VA6kQLoiJIgg5Q_2Ph-72" value="&lt;font style=&quot;font-size: 15px;&quot;&gt;&amp;lt;&amp;lt;include&amp;gt;&amp;gt;&lt;/font&gt;" style="text;html=1;whiteSpace=wrap;strokeColor=none;fillColor=none;align=center;verticalAlign=middle;rounded=0;" vertex="1" parent="S0VA6kQLoiJIgg5Q_2Ph-73">
          <mxGeometry y="420" width="200" height="30" as="geometry" />
        </mxCell>
        <mxCell id="S0VA6kQLoiJIgg5Q_2Ph-75" value="&lt;font style=&quot;font-size: 30px;&quot;&gt;Bộ sạc&lt;/font&gt;" style="shape=umlActor;verticalLabelPosition=bottom;verticalAlign=top;html=1;outlineConnect=0;" vertex="1" parent="1">
          <mxGeometry x="-60" y="1050" width="130" height="180" as="geometry" />
        </mxCell>
        <mxCell id="S0VA6kQLoiJIgg5Q_2Ph-76" value="" style="endArrow=classic;html=1;rounded=0;exitX=0.5;exitY=0.5;exitDx=0;exitDy=0;exitPerimeter=0;entryX=0;entryY=0.5;entryDx=0;entryDy=0;" edge="1" parent="1" source="S0VA6kQLoiJIgg5Q_2Ph-75" target="S0VA6kQLoiJIgg5Q_2Ph-21">
          <mxGeometry width="50" height="50" relative="1" as="geometry">
            <mxPoint x="550" y="1070" as="sourcePoint" />
            <mxPoint x="600" y="1020" as="targetPoint" />
          </mxGeometry>
        </mxCell>
        <mxCell id="S0VA6kQLoiJIgg5Q_2Ph-77" value="" style="endArrow=classic;html=1;rounded=0;" edge="1" parent="1">
          <mxGeometry width="50" height="50" relative="1" as="geometry">
            <mxPoint x="540" y="1090" as="sourcePoint" />
            <mxPoint x="590" y="1040" as="targetPoint" />
          </mxGeometry>
        </mxCell>
        <mxCell id="S0VA6kQLoiJIgg5Q_2Ph-79" value="" style="endArrow=classic;html=1;rounded=0;exitX=1;exitY=1;exitDx=0;exitDy=0;exitPerimeter=0;entryX=0;entryY=0;entryDx=0;entryDy=0;" edge="1" parent="1" source="S0VA6kQLoiJIgg5Q_2Ph-75" target="S0VA6kQLoiJIgg5Q_2Ph-23">
          <mxGeometry width="50" height="50" relative="1" as="geometry">
            <mxPoint x="540" y="1260" as="sourcePoint" />
            <mxPoint x="590" y="1210" as="targetPoint" />
          </mxGeometry>
        </mxCell>
        <mxCell id="S0VA6kQLoiJIgg5Q_2Ph-81" value="&lt;font style=&quot;font-size: 30px;&quot;&gt;Ngân hàng, ví điện tử&lt;/font&gt;" style="shape=umlActor;verticalLabelPosition=bottom;verticalAlign=top;html=1;outlineConnect=0;" vertex="1" parent="1">
          <mxGeometry x="1490" y="10" width="130" height="180" as="geometry" />
        </mxCell>
        <mxCell id="S0VA6kQLoiJIgg5Q_2Ph-82" value="" style="endArrow=classic;html=1;rounded=0;exitX=0;exitY=0.3333333333333333;exitDx=0;exitDy=0;exitPerimeter=0;entryX=0.928;entryY=0.283;entryDx=0;entryDy=0;entryPerimeter=0;edgeStyle=orthogonalEdgeStyle;curved=1;" edge="1" parent="1" source="S0VA6kQLoiJIgg5Q_2Ph-81" target="S0VA6kQLoiJIgg5Q_2Ph-13">
          <mxGeometry width="50" height="50" relative="1" as="geometry">
            <mxPoint x="790" y="360" as="sourcePoint" />
            <mxPoint x="840" y="310" as="targetPoint" />
            <Array as="points">
              <mxPoint x="1520" y="-10" />
              <mxPoint x="783" y="-10" />
            </Array>
          </mxGeometry>
        </mxCell>
        <mxCell id="S0VA6kQLoiJIgg5Q_2Ph-83" value="&lt;font style=&quot;font-size: 30px;&quot;&gt;gg map&lt;/font&gt;" style="shape=umlActor;verticalLabelPosition=bottom;verticalAlign=top;html=1;outlineConnect=0;" vertex="1" parent="1">
          <mxGeometry x="1470" y="490" width="130" height="180" as="geometry" />
        </mxCell>
        <mxCell id="S0VA6kQLoiJIgg5Q_2Ph-84" value="" style="endArrow=classic;html=1;rounded=0;entryX=1;entryY=0;entryDx=0;entryDy=0;exitX=0.5;exitY=0.5;exitDx=0;exitDy=0;exitPerimeter=0;edgeStyle=orthogonalEdgeStyle;curved=1;" edge="1" parent="1" source="S0VA6kQLoiJIgg5Q_2Ph-83" target="S0VA6kQLoiJIgg5Q_2Ph-16">
          <mxGeometry width="50" height="50" relative="1" as="geometry">
            <mxPoint x="370" y="660" as="sourcePoint" />
            <mxPoint x="420" y="580" as="targetPoint" />
            <Array as="points">
              <mxPoint x="1535" y="860" />
              <mxPoint x="765" y="860" />
            </Array>
          </mxGeometry>
        </mxCell>
        <mxCell id="E3HHMHZIclAcwRpPtt5E-1" value="&lt;font style=&quot;font-size: 30px;&quot;&gt;SMS&lt;/font&gt;" style="shape=umlActor;verticalLabelPosition=bottom;verticalAlign=top;html=1;outlineConnect=0;" vertex="1" parent="1">
          <mxGeometry x="1480" y="-400" width="130" height="180" as="geometry" />
        </mxCell>
        <mxCell id="E3HHMHZIclAcwRpPtt5E-2" value="" style="endArrow=classic;html=1;rounded=0;exitX=0.5;exitY=0.5;exitDx=0;exitDy=0;exitPerimeter=0;entryX=1;entryY=0;entryDx=0;entryDy=0;" edge="1" parent="1" source="E3HHMHZIclAcwRpPtt5E-1" target="S0VA6kQLoiJIgg5Q_2Ph-11">
          <mxGeometry width="50" height="50" relative="1" as="geometry">
            <mxPoint x="480" y="240" as="sourcePoint" />
            <mxPoint x="530" y="190" as="targetPoint" />
          </mxGeometry>
        </mxCell>
      </root>
    </mxGraphModel>
  </diagram>
</mxfile>
